<svg height="512pt" viewBox="0 0 512 512" width="512pt" xmlns="http://www.w3.org/2000/svg"><path d="m512 256c0 141.386719-114.613281 256-256 256s-256-114.613281-256-256 114.613281-256 256-256 256 114.613281 256 256zm0 0" fill="#ffda73"/><path d="m347.097656 495.324219c-28.304687 10.769531-59.003906 16.675781-91.09375 16.675781s-62.789062-5.90625-91.09375-16.675781l20.9375-60.648438 16.867188-48.828125h106.578125l16.863281 48.828125zm0 0" fill="#55627a"/><path d="m326.15625 434.675781-154.945312 42.386719 31.503906-91.214844h106.578125zm0 0" fill="#3b404d"/><path d="m502.078125 80.121094v246.722656c-8.359375 29.089844-21.746094 56.058594-39.144531 79.902344h-413.863282c-17.394531-23.84375-30.78125-50.8125-39.140624-79.902344v-246.722656c0-16.96875 13.75-30.730469 30.71875-30.730469h430.699218c16.96875 0 30.730469 13.761719 30.730469 30.730469zm0 0" fill="#55627a"/><path d="m40.652344 343.429688c-5.421875 0-9.828125-4.40625-9.828125-9.824219v-253.488281c0-5.417969 4.410156-9.828126 9.828125-9.828126h430.695312c5.417969 0 9.828125 4.410157 9.828125 9.828126v253.488281c0 5.417969-4.410156 9.824219-9.828125 9.824219zm0 0" fill="#52b5d8"/><path d="m180.226562 59.171875c-1.667968-77.949219-118.742187-77.949219-120.40625 0-.019531.851563-.027343 1.703125-.027343 2.558594 0 44.09375 24.296875 82.507812 60.230469 102.597656 35.933593-20.089844 60.230468-58.503906 60.230468-102.597656 0-.855469-.011718-1.707031-.027344-2.558594zm0 0" fill="#f76c59"/><path d="m120.023438 164.328125c-35.933594-20.089844-60.234376-58.503906-60.234376-102.597656 0-.855469.011719-1.707031.027344-2.558594.828125-38.75 30.171875-58.234375 59.679688-58.460937-22.085938.304687-44 19.789062-44.621094 58.460937-.011719.851563-.023438 1.703125-.023438 2.558594 0 44.09375 18.222657 82.507812 45.171876 102.597656zm0 0" fill="#e85142"/><path d="m120.195312 94.917969c-7.757812 0-14.886718-2.679688-20.515624-7.15625-3.980469-3.167969-7.207032-7.230469-9.378907-11.882813-1.058593-2.265625-1.863281-4.667968-2.386719-7.179687 0-.003907 0-.003907 0-.003907-.453124-2.179687-.695312-4.4375-.695312-6.75 0-18.210937 14.765625-32.972656 32.976562-32.972656 9.773438 0 18.558594 4.253906 24.597657 11.011719 1.136719 1.269531 2.171875 2.628906 3.105469 4.066406 3.332031 5.152344 5.269531 11.296875 5.269531 17.894531 0 .289063 0 .574219-.007813.863282-.460937 17.8125-15.042968 32.109375-32.964844 32.109375zm0 0" fill="#e6e6e6"/><path d="m120.195312 94.917969c-7.757812 0-14.886718-2.679688-20.515624-7.15625-3.980469-3.167969-7.207032-7.230469-9.378907-11.882813-1.058593-2.265625-1.863281-4.667968-2.386719-7.179687 0-.003907 0-.003907 0-.003907-.453124-2.179687-.695312-4.4375-.695312-6.75 0-18.210937 14.765625-32.972656 32.976562-32.972656 1.75 0 3.46875.136719 5.148438.398438-15.769531 2.46875-27.832031 16.109375-27.832031 32.574218 0 2.3125.238281 4.570313.691406 6.75v.003907c.523437 2.507812 1.332031 4.914062 2.386719 7.179687 2.171875 4.652344 5.402344 8.71875 9.378906 11.882813 4.359375 3.464843 9.617188 5.855469 15.371094 6.753906-1.675782.265625-3.394532.402344-5.144532.402344zm0 0" fill="#ccc"/><path d="m450.339844 197.136719v123.175781h-123.179688v-123.175781zm0 0" fill="#ffda73"/><path d="m327.160156 307.03125h123.179688v13.28125h-123.179688zm0 0" fill="#f9a54b"/><path d="m327.160156 197.136719h9.011719v123.179687h-9.011719zm0 0" fill="#f9a54b"/><path d="m407.859375 257.066406h-38.222656c-5.027344 0-9.101563-4.074218-9.101563-9.097656 0-5.027344 4.074219-9.101562 9.101563-9.101562h38.222656c5.027344 0 9.101563 4.074218 9.101563 9.101562 0 5.023438-4.074219 9.097656-9.101563 9.097656zm0 0" fill="#f9a54b"/><path d="m405.25 234.550781-16.5-9.785156-16.503906 9.785156v-37.414062h33.003906zm0 0" fill="#f76c59"/><g fill="#e6e6e6"><path d="m291.878906 289.371094h15.671875v10.449218h-15.671875zm0 0"/><path d="m270.929688 299.820312h-31.421876v-10.449218h31.421876zm-52.371094 0h-28.730469c-.972656 0-1.941406-.023437-2.90625-.0625l.4375-10.4375c.816406.03125 1.640625.050782 2.46875.050782h28.730469zm-53.734375-4.726562c-10.546875-4.152344-19.992188-10.960938-27.3125-19.679688l8.003906-6.71875c6.203125 7.390626 14.203125 13.160157 23.136719 16.675782zm-38.769531-39.128906c-2.984376-7.789063-4.496094-16.003906-4.496094-24.414063 0-3.015625.199218-6.050781.589844-9.019531l10.359374 1.371094c-.332031 2.515625-.5 5.089844-.5 7.648437 0 7.128907 1.28125 14.085938 3.804688 20.675781zm12.074218-50.332032-9.339844-4.691406c5.097657-10.136718 12.71875-18.933594 22.050782-25.433594l5.972656 8.570313c-7.910156 5.511719-14.367188 12.964844-18.683594 21.554687zm35.957032-29.734374-2.835938-10.054688c6.015625-1.699219 12.261719-2.558594 18.570312-2.558594h.003907 14.042969v10.449219h-14.039063c-.003906 0-.003906 0-.007813 0-5.347656 0-10.640624.730469-15.734374 2.164063zm186.890624-2.164063h-31.421874v-10.449219h31.421874zm-52.367187 0h-31.421875v-10.449219h31.421875zm-52.371094 0h-31.421875v-10.449219h31.421875zm127.054688-1.664063-3.023438-10.003906c8.582031-2.59375 15.527344-9.183594 18.582031-17.621094l9.824219 3.554688c-4.167969 11.527344-13.660156 20.523438-25.382812 24.070312zm16.207031-45.042968c-2.410156-8.632813-8.847656-15.71875-17.222656-18.957032l3.765625-9.746093c11.4375 4.421875 20.230469 14.101562 23.523437 25.894531zm-36.003906-20.863282h-31.421875v-10.449218h31.421875zm-52.371094 0h-31.421875v-10.449218h31.421875zm-52.371094 0h-31.421875v-10.449218h31.421875zm0 0"/><path d="m190.523438 95.714844h15.671874v10.449218h-15.671874zm0 0"/></g></svg>