<svg xmlns="http://www.w3.org/2000/svg" xmlns:xlink="http://www.w3.org/1999/xlink" width="48" zoomAndPan="magnify" viewBox="0 0 36 36.000001" height="48" preserveAspectRatio="xMidYMid meet" version="1.0"><defs><clipPath id="b84de16dfe"><path d="M 0.488281 0 L 35.511719 0 L 35.511719 35.027344 L 0.488281 35.027344 Z M 0.488281 0 " clip-rule="nonzero"/></clipPath><clipPath id="4e1c79c7c1"><path d="M 2.085938 8.773438 L 34.195312 8.773438 L 34.195312 26.289062 L 2.085938 26.289062 Z M 2.085938 8.773438 " clip-rule="nonzero"/></clipPath><clipPath id="69c9ea8405"><path d="M 9 8.773438 L 27 8.773438 L 27 26.289062 L 9 26.289062 Z M 9 8.773438 " clip-rule="nonzero"/></clipPath></defs><g clip-path="url(#b84de16dfe)"><path fill="#ffffff" d="M 0.488281 0 L 35.511719 0 L 35.511719 42.324219 L 0.488281 42.324219 Z M 0.488281 0 " fill-opacity="1" fill-rule="nonzero"/><path fill="#ffffff" d="M 0.488281 0 L 35.511719 0 L 35.511719 35.027344 L 0.488281 35.027344 Z M 0.488281 0 " fill-opacity="1" fill-rule="nonzero"/><path fill="#ffffff" d="M 0.488281 0 L 35.511719 0 L 35.511719 35.027344 L 0.488281 35.027344 Z M 0.488281 0 " fill-opacity="1" fill-rule="nonzero"/></g><g clip-path="url(#4e1c79c7c1)"><path fill="#e15c63" d="M 27.671875 12.035156 C 26.835938 12.035156 26.039062 12.191406 25.304688 12.472656 C 23.710938 10.238281 21.097656 8.785156 18.140625 8.785156 C 15.183594 8.785156 12.566406 10.238281 10.976562 12.472656 C 10.242188 12.191406 9.441406 12.035156 8.609375 12.035156 C 5.007812 12.035156 2.085938 14.945312 2.085938 18.53125 C 2.085938 22.121094 5.007812 25.03125 8.609375 25.03125 C 9.929688 25.03125 11.160156 24.640625 12.191406 23.964844 C 13.753906 25.402344 15.84375 26.28125 18.140625 26.28125 C 20.4375 26.28125 22.527344 25.402344 24.089844 23.964844 C 25.117188 24.640625 26.351562 25.03125 27.671875 25.03125 C 31.273438 25.03125 34.195312 22.121094 34.195312 18.53125 C 34.195312 14.945312 31.273438 12.035156 27.671875 12.035156 Z M 27.671875 12.035156 " fill-opacity="1" fill-rule="nonzero"/></g><path fill="#2f84b9" d="M 4.617188 16.53125 L 5.875 16.53125 L 5.875 17.53125 L 4.617188 17.53125 Z M 4.617188 16.53125 " fill-opacity="1" fill-rule="nonzero"/><path fill="#e15c63" d="M 8.609375 16.617188 L 9.363281 16.617188 L 9.363281 19.53125 L 8.609375 19.53125 Z M 8.609375 16.617188 " fill-opacity="1" fill-rule="nonzero"/><path fill="#2f84b9" d="M 6.996094 16.03125 L 7.773438 16.03125 L 7.773438 19.53125 L 6.996094 19.53125 Z M 6.996094 16.03125 " fill-opacity="1" fill-rule="nonzero"/><path fill="#e15c63" d="M 5.121094 17.53125 L 6.125 17.53125 L 6.125 18.78125 L 5.121094 18.78125 Z M 5.121094 17.53125 " fill-opacity="1" fill-rule="nonzero"/><path fill="#e7f2f1" d="M 5.121094 17.53125 L 5.121094 19.53125 L 3.617188 19.53125 L 3.617188 16.03125 L 4.617188 16.03125 L 4.617188 17.53125 Z M 5.121094 17.53125 " fill-opacity="1" fill-rule="nonzero"/><path fill="#b8d3cf" d="M 3.113281 19.53125 L 5.621094 19.53125 L 5.621094 20.53125 L 3.113281 20.53125 Z M 3.113281 19.53125 " fill-opacity="1" fill-rule="nonzero"/><path fill="#dc4e4f" d="M 21.5 22.933594 L 21.5 24.480469 L 18.382812 24.480469 L 18.382812 21.90625 L 19.679688 21.90625 L 19.679688 22.933594 Z M 21.5 22.933594 " fill-opacity="1" fill-rule="nonzero"/><path fill="#52a7d7" d="M 15.800781 21.90625 L 17.355469 21.90625 L 17.355469 24.480469 L 15.800781 24.480469 Z M 15.800781 21.90625 " fill-opacity="1" fill-rule="nonzero"/><path fill="#ffc05a" d="M 18.640625 17.53125 C 18.640625 17.667969 18.59375 17.789062 18.496094 17.886719 C 18.398438 17.980469 18.277344 18.03125 18.140625 18.03125 C 18 18.03125 17.882812 17.980469 17.785156 17.886719 C 17.6875 17.789062 17.636719 17.667969 17.636719 17.53125 C 17.636719 17.394531 17.6875 17.277344 17.785156 17.179688 C 17.882812 17.082031 18 17.03125 18.140625 17.03125 C 18.277344 17.03125 18.398438 17.082031 18.496094 17.179688 C 18.59375 17.277344 18.640625 17.394531 18.640625 17.53125 Z M 18.640625 17.53125 " fill-opacity="1" fill-rule="nonzero"/><path fill="#52a7d7" d="M 20.429688 14.25 L 19.585938 17.113281 C 19.492188 16.796875 19.292969 16.503906 18.996094 16.300781 C 18.703125 16.097656 18.359375 16.011719 18.027344 16.035156 Z M 20.429688 14.25 " fill-opacity="1" fill-rule="nonzero"/><path fill="#2f84b9" d="M 18.140625 18.03125 C 18.417969 18.03125 18.640625 17.808594 18.640625 17.53125 C 18.640625 17.257812 18.417969 17.03125 18.140625 17.03125 C 17.863281 17.03125 17.636719 17.257812 17.636719 17.53125 C 17.636719 17.808594 17.863281 18.03125 18.140625 18.03125 Z M 18.996094 16.300781 C 19.292969 16.503906 19.492188 16.796875 19.585938 17.113281 C 19.707031 17.535156 19.644531 18.003906 19.371094 18.390625 C 18.898438 19.066406 17.960938 19.234375 17.277344 18.765625 C 16.597656 18.289062 16.429688 17.355469 16.902344 16.675781 C 17.171875 16.289062 17.589844 16.070312 18.027344 16.035156 C 18.359375 16.011719 18.703125 16.097656 18.996094 16.300781 Z M 18.996094 16.300781 " fill-opacity="1" fill-rule="nonzero"/><path fill="#e7f2f1" d="M 27.761719 13.785156 C 27.730469 13.78125 27.703125 13.78125 27.671875 13.78125 C 27.152344 13.78125 26.652344 13.867188 26.183594 14.019531 C 26.496094 14.730469 26.71875 15.488281 26.828125 16.28125 L 26.832031 16.28125 C 26.890625 16.691406 26.921875 17.105469 26.921875 17.53125 C 26.921875 17.871094 26.902344 18.203125 26.863281 18.53125 C 26.78125 19.226562 26.621094 19.898438 26.390625 20.53125 C 26.113281 21.289062 25.734375 21.992188 25.269531 22.632812 C 25.777344 22.929688 26.34375 23.132812 26.949219 23.226562 C 27.183594 23.261719 27.425781 23.28125 27.671875 23.28125 C 30.304688 23.28125 32.4375 21.15625 32.4375 18.53125 C 32.4375 15.9375 30.355469 13.832031 27.761719 13.785156 Z M 27.761719 13.785156 " fill-opacity="1" fill-rule="nonzero"/><path fill="#dc4e4f" d="M 9.363281 17.53125 C 9.363281 15.644531 9.960938 13.902344 10.976562 12.472656 C 10.546875 12.308594 10.09375 12.1875 9.625 12.113281 C 8.625 13.679688 8.039062 15.535156 8.039062 17.53125 C 8.039062 20.285156 9.148438 22.78125 10.949219 24.601562 C 11.386719 24.433594 11.800781 24.21875 12.1875 23.964844 C 10.449219 22.363281 9.363281 20.074219 9.363281 17.53125 Z M 9.363281 17.53125 " fill-opacity="1" fill-rule="nonzero"/><path fill="#dc4e4f" d="M 27.394531 13.492188 C 27.183594 13.011719 26.933594 12.550781 26.652344 12.113281 C 26.1875 12.1875 25.734375 12.308594 25.304688 12.472656 C 25.644531 12.953125 25.941406 13.472656 26.183594 14.019531 C 26.601562 13.882812 27.050781 13.804688 27.511719 13.789062 C 27.472656 13.691406 27.4375 13.589844 27.394531 13.492188 Z M 27.394531 13.492188 " fill-opacity="1" fill-rule="nonzero"/><path fill="#dc4e4f" d="M 24.089844 23.964844 C 24.476562 24.21875 24.894531 24.433594 25.332031 24.601562 C 25.699219 24.226562 26.039062 23.828125 26.34375 23.402344 C 26.40625 23.316406 26.460938 23.226562 26.523438 23.140625 C 26.078125 23.03125 25.65625 22.859375 25.269531 22.632812 C 24.925781 23.117188 24.527344 23.5625 24.089844 23.964844 Z M 24.089844 23.964844 " fill-opacity="1" fill-rule="nonzero"/><path fill="#c3ddda" d="M 28.175781 18.683594 C 28.222656 18.304688 28.242188 17.921875 28.242188 17.53125 C 28.242188 17.042969 28.207031 16.5625 28.140625 16.09375 C 28.027344 15.289062 27.808594 14.519531 27.515625 13.789062 C 27.050781 13.804688 26.601562 13.882812 26.183594 14.019531 C 26.496094 14.730469 26.71875 15.488281 26.828125 16.28125 L 26.832031 16.28125 C 26.890625 16.691406 26.921875 17.105469 26.921875 17.53125 C 26.921875 17.871094 26.902344 18.203125 26.863281 18.53125 C 26.785156 19.226562 26.621094 19.898438 26.390625 20.53125 C 26.113281 21.289062 25.734375 21.992188 25.269531 22.632812 C 25.65625 22.859375 26.078125 23.03125 26.523438 23.140625 C 26.972656 22.472656 27.351562 21.753906 27.632812 20.984375 C 27.898438 20.253906 28.085938 19.484375 28.175781 18.683594 Z M 28.175781 18.683594 " fill-opacity="1" fill-rule="nonzero"/><g clip-path="url(#69c9ea8405)"><path fill="#6fceae" d="M 19.371094 18.390625 C 19.644531 18.003906 19.707031 17.535156 19.585938 17.113281 L 20.429688 14.25 L 18.027344 16.035156 C 17.589844 16.070312 17.171875 16.289062 16.902344 16.675781 C 16.429688 17.355469 16.597656 18.289062 17.277344 18.765625 C 17.960938 19.234375 18.898438 19.066406 19.371094 18.390625 Z M 26.921875 17.53125 C 26.921875 17.871094 26.902344 18.203125 26.863281 18.53125 C 26.78125 19.226562 26.621094 19.898438 26.390625 20.53125 C 26.113281 21.289062 25.734375 21.992188 25.269531 22.632812 C 24.925781 23.117188 24.527344 23.5625 24.089844 23.964844 C 22.527344 25.402344 20.4375 26.28125 18.140625 26.28125 C 15.84375 26.28125 13.753906 25.402344 12.191406 23.964844 C 10.449219 22.363281 9.363281 20.074219 9.363281 17.53125 C 9.363281 15.644531 9.960938 13.902344 10.976562 12.472656 C 12.566406 10.238281 15.183594 8.785156 18.140625 8.785156 C 21.097656 8.785156 23.710938 10.238281 25.304688 12.472656 C 25.644531 12.953125 25.941406 13.472656 26.183594 14.019531 C 26.496094 14.730469 26.71875 15.488281 26.828125 16.28125 L 26.832031 16.28125 C 26.890625 16.691406 26.921875 17.105469 26.921875 17.53125 Z M 21.5 24.480469 L 21.5 22.933594 L 19.679688 22.933594 L 19.679688 21.90625 L 18.382812 21.90625 L 18.382812 24.480469 Z M 17.355469 24.480469 L 17.355469 21.90625 L 15.800781 21.90625 L 15.800781 24.480469 Z M 17.355469 24.480469 " fill-opacity="1" fill-rule="nonzero"/></g><path fill="#ffffff" d="M 13.351562 22.5625 C 13.285156 22.5625 13.21875 22.535156 13.167969 22.488281 C 12.488281 21.8125 11.964844 21.019531 11.613281 20.132812 C 11.277344 19.308594 11.109375 18.433594 11.109375 17.53125 C 11.109375 16.574219 11.300781 15.644531 11.675781 14.773438 C 12.03125 13.945312 12.535156 13.207031 13.167969 12.578125 C 13.847656 11.898438 14.640625 11.378906 15.53125 11.027344 C 16.355469 10.695312 17.230469 10.527344 18.140625 10.527344 C 20.019531 10.527344 21.789062 11.253906 23.113281 12.578125 C 23.792969 13.257812 24.316406 14.046875 24.671875 14.929688 C 25.003906 15.753906 25.171875 16.628906 25.171875 17.53125 C 25.171875 17.675781 25.058594 17.789062 24.914062 17.789062 C 24.769531 17.789062 24.65625 17.675781 24.65625 17.53125 C 24.65625 16.695312 24.5 15.886719 24.1875 15.121094 C 23.863281 14.304688 23.378906 13.570312 22.746094 12.941406 C 21.519531 11.714844 19.882812 11.039062 18.140625 11.039062 C 17.300781 11.039062 16.488281 11.195312 15.722656 11.503906 C 14.898438 11.832031 14.164062 12.3125 13.535156 12.941406 C 12.945312 13.527344 12.480469 14.210938 12.152344 14.976562 C 11.804688 15.78125 11.628906 16.644531 11.628906 17.53125 C 11.628906 18.367188 11.785156 19.179688 12.09375 19.941406 C 12.421875 20.765625 12.90625 21.5 13.535156 22.125 C 13.636719 22.222656 13.636719 22.386719 13.535156 22.488281 C 13.484375 22.535156 13.417969 22.5625 13.351562 22.5625 Z M 13.351562 22.5625 " fill-opacity="1" fill-rule="nonzero"/><path fill="#ffffff" d="M 18.140625 12.539062 C 17.996094 12.539062 17.882812 12.425781 17.882812 12.28125 L 17.882812 10.78125 C 17.882812 10.640625 17.996094 10.527344 18.140625 10.527344 C 18.28125 10.527344 18.398438 10.640625 18.398438 10.78125 L 18.398438 12.28125 C 18.398438 12.425781 18.28125 12.539062 18.140625 12.539062 Z M 18.140625 12.539062 " fill-opacity="1" fill-rule="nonzero"/><path fill="#ffffff" d="M 12.875 17.789062 L 11.367188 17.789062 C 11.226562 17.789062 11.109375 17.675781 11.109375 17.53125 C 11.109375 17.390625 11.226562 17.273438 11.367188 17.273438 L 12.875 17.273438 C 13.015625 17.273438 13.132812 17.390625 13.132812 17.53125 C 13.132812 17.675781 13.015625 17.789062 12.875 17.789062 Z M 12.875 17.789062 " fill-opacity="1" fill-rule="nonzero"/><path fill="#ffffff" d="M 24.914062 17.789062 L 23.410156 17.789062 C 23.265625 17.789062 23.148438 17.675781 23.148438 17.53125 C 23.148438 17.390625 23.265625 17.273438 23.410156 17.273438 L 24.914062 17.273438 C 25.058594 17.273438 25.171875 17.390625 25.171875 17.53125 C 25.171875 17.675781 25.058594 17.789062 24.914062 17.789062 Z M 24.914062 17.789062 " fill-opacity="1" fill-rule="nonzero"/><path fill="#ffffff" d="M 14.417969 14.078125 C 14.351562 14.078125 14.285156 14.054688 14.234375 14.003906 L 13.167969 12.941406 C 13.066406 12.839844 13.066406 12.675781 13.167969 12.578125 C 13.269531 12.476562 13.433594 12.476562 13.535156 12.578125 L 14.601562 13.640625 C 14.699219 13.742188 14.699219 13.902344 14.597656 14.003906 C 14.546875 14.054688 14.484375 14.078125 14.417969 14.078125 Z M 14.417969 14.078125 " fill-opacity="1" fill-rule="nonzero"/><path fill="#ffffff" d="M 13.296875 15.71875 C 13.261719 15.71875 13.230469 15.714844 13.195312 15.699219 L 11.8125 15.109375 C 11.679688 15.054688 11.621094 14.902344 11.675781 14.773438 C 11.734375 14.640625 11.886719 14.582031 12.015625 14.636719 L 13.398438 15.226562 C 13.53125 15.28125 13.59375 15.433594 13.535156 15.5625 C 13.492188 15.660156 13.398438 15.71875 13.296875 15.71875 Z M 13.296875 15.71875 " fill-opacity="1" fill-rule="nonzero"/><path fill="#ffffff" d="M 11.851562 20.296875 C 11.75 20.296875 11.652344 20.234375 11.613281 20.132812 C 11.558594 20.003906 11.625 19.851562 11.757812 19.800781 L 13.152344 19.242188 C 13.285156 19.191406 13.4375 19.253906 13.488281 19.386719 C 13.542969 19.519531 13.476562 19.667969 13.34375 19.722656 L 11.949219 20.277344 C 11.917969 20.289062 11.886719 20.296875 11.851562 20.296875 Z M 11.851562 20.296875 " fill-opacity="1" fill-rule="nonzero"/><path fill="#ffffff" d="M 23.03125 15.839844 C 22.929688 15.839844 22.832031 15.777344 22.789062 15.675781 C 22.738281 15.546875 22.800781 15.394531 22.933594 15.34375 L 24.332031 14.785156 C 24.464844 14.734375 24.617188 14.796875 24.671875 14.929688 C 24.722656 15.0625 24.660156 15.210938 24.527344 15.265625 L 23.128906 15.820312 C 23.097656 15.832031 23.0625 15.839844 23.03125 15.839844 Z M 23.03125 15.839844 " fill-opacity="1" fill-rule="nonzero"/><path fill="#ffffff" d="M 16.183594 12.917969 C 16.082031 12.917969 15.984375 12.855469 15.945312 12.753906 L 15.386719 11.363281 C 15.332031 11.230469 15.398438 11.082031 15.53125 11.027344 C 15.664062 10.976562 15.8125 11.039062 15.867188 11.171875 L 16.425781 12.5625 C 16.480469 12.695312 16.414062 12.84375 16.28125 12.898438 C 16.25 12.910156 16.21875 12.917969 16.183594 12.917969 Z M 16.183594 12.917969 " fill-opacity="1" fill-rule="nonzero"/><path fill="#ffffff" d="M 20.214844 12.964844 C 20.183594 12.964844 20.148438 12.957031 20.113281 12.945312 C 19.984375 12.886719 19.921875 12.738281 19.976562 12.605469 L 20.570312 11.226562 C 20.625 11.097656 20.777344 11.035156 20.910156 11.089844 C 21.039062 11.148438 21.101562 11.296875 21.046875 11.429688 L 20.453125 12.808594 C 20.414062 12.90625 20.316406 12.964844 20.214844 12.964844 Z M 20.214844 12.964844 " fill-opacity="1" fill-rule="nonzero"/><path fill="#ffffff" d="M 13.351562 22.5625 C 13.285156 22.5625 13.21875 22.539062 13.167969 22.488281 C 13.066406 22.386719 13.066406 22.222656 13.167969 22.125 L 14.234375 21.0625 C 14.332031 20.960938 14.496094 20.960938 14.597656 21.058594 C 14.699219 21.160156 14.699219 21.324219 14.601562 21.425781 L 13.535156 22.488281 C 13.484375 22.535156 13.417969 22.5625 13.351562 22.5625 Z M 13.351562 22.5625 " fill-opacity="1" fill-rule="nonzero"/><path fill="#ffffff" d="M 21.867188 14.078125 C 21.800781 14.078125 21.734375 14.054688 21.683594 14.003906 C 21.582031 13.902344 21.582031 13.742188 21.683594 13.640625 L 22.746094 12.578125 C 22.847656 12.476562 23.011719 12.476562 23.113281 12.578125 C 23.214844 12.675781 23.214844 12.839844 23.113281 12.941406 L 22.050781 14.003906 C 22 14.054688 21.933594 14.078125 21.867188 14.078125 Z M 21.867188 14.078125 " fill-opacity="1" fill-rule="nonzero"/><path fill="#ffffff" d="M 22.792969 23.191406 C 22.710938 23.191406 22.628906 23.152344 22.578125 23.078125 C 22.5 22.960938 22.53125 22.800781 22.648438 22.722656 C 23.476562 22.164062 23.996094 21.28125 24.078125 20.320312 L 19.6875 20.320312 L 19.6875 20.8125 C 19.6875 20.953125 19.570312 21.070312 19.425781 21.070312 C 19.285156 21.070312 19.167969 20.953125 19.167969 20.8125 L 19.167969 20.0625 C 19.167969 19.921875 19.285156 19.804688 19.425781 19.804688 L 24.347656 19.804688 C 24.488281 19.804688 24.605469 19.921875 24.605469 20.0625 C 24.605469 21.292969 23.980469 22.445312 22.9375 23.148438 C 22.894531 23.179688 22.84375 23.191406 22.792969 23.191406 Z M 22.792969 23.191406 " fill-opacity="1" fill-rule="nonzero"/><path fill="#ffc05a" d="M 6.601562 20.273438 C 6.457031 20.273438 6.34375 20.390625 6.34375 20.53125 C 6.34375 20.675781 6.457031 20.789062 6.601562 20.789062 L 9.632812 20.789062 C 9.773438 20.789062 9.890625 20.675781 9.890625 20.53125 C 9.890625 20.390625 9.773438 20.273438 9.632812 20.273438 Z M 6.601562 20.273438 " fill-opacity="1" fill-rule="nonzero"/><path fill="#ffc05a" d="M 28.425781 18.277344 L 27.121094 18.277344 C 26.980469 18.277344 26.863281 18.390625 26.863281 18.53125 C 26.863281 18.675781 26.980469 18.789062 27.121094 18.789062 L 28.164062 18.789062 L 28.164062 20.273438 L 26.648438 20.273438 C 26.503906 20.273438 26.390625 20.390625 26.390625 20.53125 C 26.390625 20.675781 26.503906 20.789062 26.648438 20.789062 L 28.425781 20.789062 C 28.566406 20.789062 28.683594 20.675781 28.683594 20.53125 L 28.683594 18.53125 C 28.683594 18.390625 28.566406 18.277344 28.425781 18.277344 Z M 28.425781 18.277344 " fill-opacity="1" fill-rule="nonzero"/><path fill="#ffc05a" d="M 28.425781 16.023438 L 27.089844 16.023438 C 26.945312 16.023438 26.832031 16.140625 26.832031 16.28125 C 26.832031 16.425781 26.949219 16.539062 27.089844 16.539062 L 28.164062 16.539062 L 28.164062 17.03125 C 28.164062 17.175781 28.28125 17.289062 28.425781 17.289062 C 28.566406 17.289062 28.683594 17.175781 28.683594 17.03125 L 28.683594 16.28125 C 28.683594 16.140625 28.566406 16.023438 28.425781 16.023438 Z M 28.425781 16.023438 " fill-opacity="1" fill-rule="nonzero"/><path fill="#ffc05a" d="M 30.429688 20.789062 C 30.289062 20.789062 30.171875 20.675781 30.171875 20.53125 L 30.171875 16.902344 L 29.863281 17.214844 C 29.761719 17.316406 29.597656 17.316406 29.496094 17.214844 C 29.394531 17.113281 29.394531 16.953125 29.496094 16.851562 L 30.25 16.097656 C 30.324219 16.027344 30.433594 16.003906 30.53125 16.042969 C 30.628906 16.082031 30.691406 16.175781 30.691406 16.28125 L 30.691406 20.53125 C 30.691406 20.675781 30.574219 20.789062 30.429688 20.789062 Z M 30.429688 20.789062 " fill-opacity="1" fill-rule="nonzero"/></svg>